<mxfile host="app.diagrams.net" modified="2022-09-15T00:41:48.156Z" agent="5.0 (Macintosh; Intel Mac OS X 10_14_6) AppleWebKit/605.1.15 (KHTML, like Gecko) Version/14.1.2 Safari/605.1.15" etag="D05babbGjmNvwXEGZbJp" version="20.3.0" type="github">
  <diagram id="R2lEEEUBdFMjLlhIrx00" name="Page-1">
    <mxGraphModel dx="793" dy="572" grid="1" gridSize="10" guides="1" tooltips="1" connect="1" arrows="1" fold="1" page="1" pageScale="1" pageWidth="850" pageHeight="1100" math="0" shadow="0" extFonts="Permanent Marker^https://fonts.googleapis.com/css?family=Permanent+Marker">
      <root>
        <mxCell id="0" />
        <mxCell id="1" parent="0" />
        <mxCell id="6cKVFSsusUxltJV1LaVB-1" value="Users" style="swimlane;strokeColor=default;strokeWidth=1;" vertex="1" parent="1">
          <mxGeometry x="150" y="110" width="170" height="95" as="geometry" />
        </mxCell>
        <mxCell id="6cKVFSsusUxltJV1LaVB-2" value="&lt;u&gt;email&lt;/u&gt;&lt;br&gt;name&lt;br&gt;birthdate" style="text;html=1;align=center;verticalAlign=middle;resizable=0;points=[];autosize=1;strokeColor=none;fillColor=none;" vertex="1" parent="6cKVFSsusUxltJV1LaVB-1">
          <mxGeometry x="10" y="25" width="70" height="60" as="geometry" />
        </mxCell>
        <mxCell id="6cKVFSsusUxltJV1LaVB-4" value="&lt;span style=&quot;font-style: normal; font-variant-caps: normal; font-weight: normal; letter-spacing: normal; text-align: start; text-indent: 0px; text-transform: none; word-spacing: 0px; -webkit-text-stroke-width: 0px; text-decoration: none; box-sizing: border-box; color: transparent; position: absolute; cursor: text; transform-origin: 0% 0% 0px; display: block; float: left; margin-bottom: -918px; margin-right: -918px; left: 108.21255px; top: 75.76380000000012px; font-size: 13.319999999999999px; font-family: sans-serif; transform: scaleX(1.0374238889459513);&quot; class=&quot;textLayer--absolute&quot; dir=&quot;ltr&quot; role=&quot;presentation&quot;&gt;https://docs.google.com/spreadsheets/d/1R2Y3dV8q66rjCOBZQCV6RBLFsSArWl20ytBrvFRlf1U/edit?usp=sharing&lt;/span&gt;&lt;span style=&quot;font-style: normal; font-variant-caps: normal; font-weight: normal; letter-spacing: normal; text-align: start; text-indent: 0px; text-transform: none; word-spacing: 0px; -webkit-text-stroke-width: 0px; text-decoration: none; box-sizing: border-box; color: transparent; position: absolute; cursor: text; transform-origin: 0% 0% 0px; display: block; float: left; margin-bottom: -918px; margin-right: -918px; left: 793.78575px; top: 74.61180000000013px; font-size: 14.76px; font-family: sans-serif; transform: scaleX(0.885427065026362);&quot; class=&quot;textLayer--absolute&quot; dir=&quot;ltr&quot; role=&quot;presentation&quot;&gt; &lt;/span&gt;" style="text;whiteSpace=wrap;html=1;" vertex="1" parent="1">
          <mxGeometry x="280" y="330" width="30" height="20" as="geometry" />
        </mxCell>
        <mxCell id="6cKVFSsusUxltJV1LaVB-5" value="Calendar" style="swimlane;strokeColor=default;strokeWidth=1;" vertex="1" parent="1">
          <mxGeometry x="500" y="110" width="170" height="95" as="geometry" />
        </mxCell>
        <mxCell id="6cKVFSsusUxltJV1LaVB-6" value="&lt;u&gt;calendar_id&lt;/u&gt;&lt;br&gt;ispublic&lt;br&gt;owner" style="text;html=1;align=left;verticalAlign=middle;resizable=0;points=[];autosize=1;strokeColor=none;fillColor=none;" vertex="1" parent="6cKVFSsusUxltJV1LaVB-5">
          <mxGeometry x="10" y="25" width="90" height="60" as="geometry" />
        </mxCell>
        <mxCell id="6cKVFSsusUxltJV1LaVB-9" value="Events" style="swimlane;strokeColor=default;strokeWidth=1;" vertex="1" parent="1">
          <mxGeometry x="240" y="285" width="180" height="170" as="geometry" />
        </mxCell>
        <mxCell id="6cKVFSsusUxltJV1LaVB-10" value="&lt;u&gt;event_id&lt;/u&gt;&lt;br&gt;title&lt;br&gt;description&lt;br&gt;end_recurring&lt;br&gt;meeting OR focustime&lt;br&gt;invite Users[]&lt;br&gt;auto decline" style="text;html=1;align=left;verticalAlign=middle;resizable=0;points=[];autosize=1;strokeColor=none;fillColor=none;" vertex="1" parent="6cKVFSsusUxltJV1LaVB-9">
          <mxGeometry x="10" y="30" width="140" height="110" as="geometry" />
        </mxCell>
        <mxCell id="6cKVFSsusUxltJV1LaVB-13" value="Rooms" style="swimlane;strokeColor=default;strokeWidth=1;" vertex="1" parent="1">
          <mxGeometry x="500" y="360" width="170" height="95" as="geometry" />
        </mxCell>
        <mxCell id="6cKVFSsusUxltJV1LaVB-14" value="&lt;u&gt;room_id&lt;/u&gt;&lt;br&gt;floor&lt;br&gt;building&lt;br&gt;link" style="text;html=1;align=left;verticalAlign=middle;resizable=0;points=[];autosize=1;strokeColor=none;fillColor=none;" vertex="1" parent="6cKVFSsusUxltJV1LaVB-13">
          <mxGeometry x="10" y="20" width="70" height="70" as="geometry" />
        </mxCell>
        <mxCell id="6cKVFSsusUxltJV1LaVB-15" value="" style="rhombus;whiteSpace=wrap;html=1;fontStyle=1;startSize=23;strokeWidth=1;" vertex="1" parent="1">
          <mxGeometry x="370" y="117.5" width="100" height="80" as="geometry" />
        </mxCell>
        <mxCell id="6cKVFSsusUxltJV1LaVB-17" value="" style="endArrow=classic;html=1;rounded=0;" edge="1" parent="1">
          <mxGeometry width="50" height="50" relative="1" as="geometry">
            <mxPoint x="370" y="157" as="sourcePoint" />
            <mxPoint x="320" y="157" as="targetPoint" />
          </mxGeometry>
        </mxCell>
        <mxCell id="6cKVFSsusUxltJV1LaVB-19" value="Owns" style="text;html=1;strokeColor=none;fillColor=none;align=center;verticalAlign=middle;whiteSpace=wrap;rounded=0;strokeWidth=1;" vertex="1" parent="1">
          <mxGeometry x="390" y="142.5" width="60" height="30" as="geometry" />
        </mxCell>
        <mxCell id="6cKVFSsusUxltJV1LaVB-20" value="" style="endArrow=none;html=1;rounded=0;exitX=1;exitY=0.5;exitDx=0;exitDy=0;" edge="1" parent="1" source="6cKVFSsusUxltJV1LaVB-15">
          <mxGeometry width="50" height="50" relative="1" as="geometry">
            <mxPoint x="410" y="320" as="sourcePoint" />
            <mxPoint x="500" y="158" as="targetPoint" />
          </mxGeometry>
        </mxCell>
        <mxCell id="6cKVFSsusUxltJV1LaVB-21" value="" style="endArrow=none;html=1;rounded=0;" edge="1" parent="1" target="6cKVFSsusUxltJV1LaVB-15">
          <mxGeometry width="50" height="50" relative="1" as="geometry">
            <mxPoint x="500" y="162" as="sourcePoint" />
            <mxPoint x="430" y="370" as="targetPoint" />
          </mxGeometry>
        </mxCell>
        <mxCell id="6cKVFSsusUxltJV1LaVB-22" value="" style="rhombus;whiteSpace=wrap;html=1;fontStyle=1;startSize=23;strokeWidth=1;fillColor=none;" vertex="1" parent="1">
          <mxGeometry x="365" y="111.25" width="110" height="92.5" as="geometry" />
        </mxCell>
        <mxCell id="6cKVFSsusUxltJV1LaVB-23" value="" style="swimlane;startSize=0;strokeColor=default;strokeWidth=1;fillColor=none;" vertex="1" parent="1">
          <mxGeometry x="495" y="103.5" width="180" height="108" as="geometry" />
        </mxCell>
        <mxCell id="6cKVFSsusUxltJV1LaVB-24" value="" style="endArrow=none;dashed=1;html=1;dashPattern=1 3;strokeWidth=2;rounded=0;" edge="1" parent="1">
          <mxGeometry width="50" height="50" relative="1" as="geometry">
            <mxPoint x="180" y="370" as="sourcePoint" />
            <mxPoint x="240" y="369.5" as="targetPoint" />
          </mxGeometry>
        </mxCell>
        <mxCell id="6cKVFSsusUxltJV1LaVB-25" value="When" style="swimlane;strokeColor=default;strokeWidth=1;startSize=23;" vertex="1" parent="1">
          <mxGeometry x="40" y="320" width="140" height="120" as="geometry" />
        </mxCell>
        <mxCell id="6cKVFSsusUxltJV1LaVB-26" value="&lt;u&gt;email&lt;/u&gt;&lt;br&gt;name&lt;br&gt;birthdate" style="text;html=1;align=center;verticalAlign=middle;resizable=0;points=[];autosize=1;strokeColor=none;fillColor=none;" vertex="1" parent="6cKVFSsusUxltJV1LaVB-25">
          <mxGeometry x="10" y="25" width="70" height="60" as="geometry" />
        </mxCell>
        <mxCell id="6cKVFSsusUxltJV1LaVB-27" value="All Day" style="swimlane;strokeColor=default;strokeWidth=1;startSize=23;" vertex="1" parent="1">
          <mxGeometry x="40" y="530" width="100" height="50" as="geometry" />
        </mxCell>
        <mxCell id="6cKVFSsusUxltJV1LaVB-28" value="date" style="text;html=1;align=center;verticalAlign=middle;resizable=0;points=[];autosize=1;strokeColor=none;fillColor=none;" vertex="1" parent="6cKVFSsusUxltJV1LaVB-27">
          <mxGeometry x="10" y="20" width="50" height="30" as="geometry" />
        </mxCell>
        <mxCell id="6cKVFSsusUxltJV1LaVB-31" value="Time Range" style="swimlane;strokeColor=default;strokeWidth=1;startSize=23;" vertex="1" parent="1">
          <mxGeometry x="160" y="530" width="140" height="60" as="geometry" />
        </mxCell>
        <mxCell id="6cKVFSsusUxltJV1LaVB-32" value="start&lt;br&gt;end" style="text;html=1;align=center;verticalAlign=middle;resizable=0;points=[];autosize=1;strokeColor=none;fillColor=none;" vertex="1" parent="6cKVFSsusUxltJV1LaVB-31">
          <mxGeometry x="20" y="20" width="50" height="40" as="geometry" />
        </mxCell>
        <mxCell id="6cKVFSsusUxltJV1LaVB-36" value="" style="strokeWidth=2;html=1;shape=mxgraph.flowchart.annotation_2;align=left;labelPosition=right;pointerEvents=1;strokeColor=default;fillColor=none;rotation=90;" vertex="1" parent="1">
          <mxGeometry x="90" y="400" width="90" height="170" as="geometry" />
        </mxCell>
        <mxCell id="6cKVFSsusUxltJV1LaVB-38" value="" style="endArrow=classic;html=1;rounded=0;" edge="1" parent="1">
          <mxGeometry width="50" height="50" relative="1" as="geometry">
            <mxPoint x="135" y="480" as="sourcePoint" />
            <mxPoint x="134.5" y="440" as="targetPoint" />
          </mxGeometry>
        </mxCell>
      </root>
    </mxGraphModel>
  </diagram>
</mxfile>
